<svg width="100" height="100" viewBox="0 0 100 100" fill="none" xmlns="http://www.w3.org/2000/svg">
<path d="M57.5195 20.3848L57.7676 21.0117L58.2949 20.5928L74.3193 7.87598L71.3193 28.1123L71.2207 28.7793L71.8877 28.6807L92.123 25.6797L79.4072 41.7051L78.9883 42.2324L79.6152 42.4805L98.6396 50L79.6152 57.5195L78.9883 57.7676L79.4072 58.2949L92.123 74.3193L71.8877 71.3193L71.2207 71.2207L71.3193 71.8877L74.3193 92.123L58.2949 79.4072L57.7676 78.9883L57.5195 79.6152L50 98.6396L42.4805 79.6152L42.2324 78.9883L41.7051 79.4072L25.6797 92.123L28.6807 71.8877L28.7793 71.2207L28.1123 71.3193L7.87598 74.3193L20.5928 58.2949L21.0117 57.7676L20.3848 57.5195L1.35938 50L20.3848 42.4805L21.0117 42.2324L20.5928 41.7051L7.87598 25.6797L28.1123 28.6807L28.7793 28.7793L28.6807 28.1123L25.6797 7.87598L41.7051 20.5928L42.2324 21.0117L42.4805 20.3848L50 1.35938L57.5195 20.3848Z" stroke="url(#paint0_linear_2370_186)"/>
<defs>
<linearGradient id="paint0_linear_2370_186" x1="26.9737" y1="89.2544" x2="70.614" y2="1.30078e-06" gradientUnits="userSpaceOnUse">
<stop stop-color="white"/>
<stop offset="1" stop-color="#575757"/>
</linearGradient>
</defs>
</svg>
