<svg width="290" height="290" viewBox="0 0 290 290" fill="none" xmlns="http://www.w3.org/2000/svg">
<path d="M145.003 0L159.779 56.9509L192.247 7.88359L187.73 66.5466L234.371 30.6801L211.052 84.6981L266.811 65.919L227.215 109.438L286.051 109.782L234.47 138.087L290.006 157.515L232.029 167.538L278.248 203.947L220.158 194.601L252.051 244.044L200.143 216.344L214.253 273.463L174.152 230.409L168.952 289.016L145.003 235.273L121.054 289.016L115.854 230.409L75.7527 273.463L89.863 216.344L37.9552 244.044L69.8476 194.601L11.758 203.947L57.9766 167.538L-3.05176e-05 157.515L55.5361 138.087L3.95526 109.782L62.7908 109.438L23.1953 65.919L78.9545 84.6981L55.6351 30.6801L102.276 66.5466L97.7592 7.88359L130.227 56.9509L145.003 0Z" fill="url(#paint0_linear_2370_185)"/>
<defs>
<linearGradient id="paint0_linear_2370_185" x1="133.245" y1="0" x2="133.245" y2="291" gradientUnits="userSpaceOnUse">
<stop stop-color="#1483EC" stop-opacity="0"/>
<stop offset="1" stop-color="#7C62FF"/>
</linearGradient>
</defs>
</svg>
